# xmcd
#
# Track frame offsets: 
#        150
#        16590
#        39067
#        52527
#        70070
#        79772
#        89262
#        101205
#        120257
#        138510
#        161992
#
# Disc length: 2318 seconds
#
# Revision: 1
# Processed by: cddbd v1.5.2PL0 Copyright (c) Steve Scherf et al.
# Submitted via: ExactAudioCopy v0.99pb4
#
DISCID=79090c0b
DTITLE=Prince - Skin Tight CD1
DYEAR=1991
DGENRE=Funk
TTITLE0=New Power Generation
TTITLE1=Daddy Pop
TTITLE2=Round And Round
TTITLE3=Strange Relationship
TTITLE4=Pop Life
TTITLE5=Skin Tight
TTITLE6=Let's Work
TTITLE7=Horny Pony
TTITLE8=Elephants and Flowers
TTITLE9=Diamonds and Pearls
TTITLE10=Dead On It
EXTD=
EXTT0=
EXTT1=
EXTT2=
EXTT3=
EXTT4=
EXTT5=
EXTT6=
EXTT7=
EXTT8=
EXTT9=
EXTT10=
PLAYORDER=
